# Blender v2.62 (sub 0) OBJ File: 'back_arrow.blend'
# www.blender.org
o Text
v -1.861950 1.268650 0.045000
v -1.861950 1.229500 0.045000
v -2.031150 1.159300 0.045000
v -1.861950 1.089100 0.045000
v -1.861950 1.049950 0.045000
v -2.075250 1.140850 0.045000
v -2.075250 1.177750 0.045000
v -1.861950 1.268650 -0.045000
v -1.861950 1.229500 -0.045000
v -2.031150 1.159300 -0.045000
v -1.861950 1.089100 -0.045000
v -1.861950 1.049950 -0.045000
v -2.075250 1.140850 -0.045000
v -2.075250 1.177750 -0.045000
v -1.861950 1.268650 -0.045000
v -1.854450 1.279999 -0.037500
v -1.861950 1.229500 -0.045000
v -1.854450 1.224492 -0.037500
v -2.031150 1.159300 -0.045000
v -2.011579 1.159300 -0.037500
v -1.861950 1.089100 -0.045000
v -1.854450 1.094108 -0.037500
v -1.861950 1.049950 -0.045000
v -1.854450 1.038601 -0.037500
v -2.075250 1.140850 -0.045000
v -2.082750 1.135894 -0.037500
v -2.075250 1.177750 -0.045000
v -2.082750 1.182706 -0.037500
v -1.854450 1.279999 -0.037500
v -1.854450 1.279999 0.037500
v -1.854450 1.224492 -0.037500
v -1.854450 1.224492 0.037500
v -2.011579 1.159300 -0.037500
v -2.011579 1.159300 0.037500
v -1.854450 1.094108 -0.037500
v -1.854450 1.094108 0.037500
v -1.854450 1.038601 -0.037500
v -1.854450 1.038601 0.037500
v -2.082750 1.135894 -0.037500
v -2.082750 1.135894 0.037500
v -2.082750 1.182706 -0.037500
v -2.082750 1.182706 0.037500
v -1.854450 1.279999 0.037500
v -1.861950 1.268650 0.045000
v -1.854450 1.224492 0.037500
v -1.861950 1.229500 0.045000
v -2.011579 1.159300 0.037500
v -2.031150 1.159300 0.045000
v -1.854450 1.094108 0.037500
v -1.861950 1.089100 0.045000
v -1.854450 1.038601 0.037500
v -1.861950 1.049950 0.045000
v -2.082750 1.135894 0.037500
v -2.075250 1.140850 0.045000
v -2.082750 1.182706 0.037500
v -2.075250 1.177750 0.045000
vn -0.000000 0.000000 1.000000
vn 0.000000 -0.000000 -1.000000
vn 0.266182 0.402783 -0.875698
vn 0.531724 -0.355052 -0.768853
vn 0.357830 0.000000 -0.933775
vn 0.531724 0.355052 -0.768853
vn 0.531724 0.355083 -0.768853
vn 0.266182 -0.402783 -0.875698
vn -0.534440 -0.353191 -0.767846
vn -0.534440 0.353191 -0.767846
vn 0.551317 0.834254 0.000000
vn 0.831629 -0.555315 0.000000
vn 1.000000 0.000000 0.000000
vn 0.831629 0.555315 0.000000
vn 0.551317 -0.834254 0.000000
vn -0.834254 -0.551317 0.000000
vn -0.834254 0.551317 0.000000
vn 0.266182 0.402783 0.875698
vn 0.531724 -0.355052 0.768853
vn 0.357830 0.000000 0.933775
vn 0.531724 0.355083 0.768853
vn 0.531724 0.355052 0.768853
vn 0.266182 -0.402783 0.875698
vn -0.534440 -0.353191 0.767846
vn -0.534440 0.353191 0.767846
s off
f 2//1 1//1 7//1
f 7//1 3//1 2//1
f 6//1 3//1 7//1
f 6//1 4//1 3//1
f 5//1 4//1 6//1
f 9//2 14//2 8//2
f 10//2 14//2 9//2
f 10//2 13//2 14//2
f 11//2 13//2 10//2
f 11//2 12//2 13//2
s 1
f 16//3 18//4 17//4
f 16//3 17//4 15//3
f 18//4 20//5 19//5
f 18//4 19//5 17//4
f 20//5 22//6 21//7
f 20//5 21//7 19//5
f 22//6 24//8 23//8
f 22//6 23//8 21//7
f 24//8 26//9 25//9
f 24//8 25//9 23//8
f 26//9 28//10 27//10
f 26//9 27//10 25//9
f 28//10 16//3 15//3
f 28//10 15//3 27//10
f 30//11 32//12 31//12
f 30//11 31//12 29//11
f 32//12 34//13 33//13
f 32//12 33//13 31//12
f 34//13 36//14 35//14
f 34//13 35//14 33//13
f 36//14 38//15 37//15
f 36//14 37//15 35//14
f 38//15 40//16 39//16
f 38//15 39//16 37//15
f 40//16 42//17 41//17
f 40//16 41//17 39//16
f 42//17 30//11 29//11
f 42//17 29//11 41//17
f 44//18 46//19 45//19
f 44//18 45//19 43//18
f 46//19 48//20 47//20
f 46//19 47//20 45//19
f 48//20 50//21 49//22
f 48//20 49//22 47//20
f 50//21 52//23 51//23
f 50//21 51//23 49//22
f 52//23 54//24 53//24
f 52//23 53//24 51//23
f 54//24 56//25 55//25
f 54//24 55//25 53//24
f 56//25 44//18 43//18
f 56//25 43//18 55//25
