# Blender v2.62 (sub 0) OBJ File: 'select_arrow.blend'
# www.blender.org
o Cone
v -0.989802 -1.010093 -0.002184
v -0.991010 -0.990308 0.192845
v -0.992562 -0.932855 0.380265
v -0.994397 -0.839944 0.552873
v -0.996445 -0.715143 0.704036
v -0.998628 -0.563251 0.827944
v -1.000860 -0.390103 0.919837
v -1.003057 -0.202353 0.976182
v -1.005134 -0.007218 0.994814
v -1.007011 0.187806 0.975017
v -1.008616 0.375221 0.917553
v -1.009887 0.547828 0.824629
v -1.010777 0.698991 0.699816
v -1.011249 0.822903 0.547911
v -1.011287 0.914801 0.374751
v -1.010888 0.971154 0.186991
v -1.010069 0.989795 -0.008153
v -1.008860 0.970010 -0.203182
v -1.007308 0.912557 -0.390602
v -1.005473 0.819645 -0.563210
v -1.003425 0.694845 -0.714373
v -1.001243 0.542952 -0.838281
v -0.999010 0.369804 -0.930174
v -0.996814 0.182055 -0.986519
v -0.994737 -0.013081 -1.005151
v -0.992860 -0.208105 -0.985354
v -0.991254 -0.395520 -0.927889
v -0.989983 -0.568127 -0.834965
v -0.989094 -0.719290 -0.710152
v -0.988621 -0.843202 -0.558247
v -0.988584 -0.935099 -0.385087
v -0.988982 -0.991452 -0.197327
v 0.999935 0.010149 0.005168
v -0.999935 -0.010149 -0.005168
vn 0.454032 -0.886149 0.092713
vn 0.452790 -0.851406 0.264742
vn 0.451267 -0.783771 0.426687
vn 0.449520 -0.685842 0.572322
vn 0.447617 -0.561382 0.696052
vn 0.445632 -0.415177 0.793121
vn 0.443639 -0.252841 0.859800
vn 0.441717 -0.080616 0.893525
vn 0.439938 0.094882 0.893001
vn 0.438372 0.266906 0.858249
vn 0.437078 0.428848 0.790602
vn 0.436106 0.574483 0.692662
vn 0.435494 0.698214 0.568192
vn 0.435264 0.795288 0.421974
vn 0.435427 0.861972 0.259630
vn 0.435974 0.895705 0.087396
vn 0.436887 0.895191 -0.088109
vn 0.438129 0.860448 -0.260138
vn 0.439652 0.792813 -0.422082
vn 0.441399 0.694884 -0.567718
vn 0.443302 0.570425 -0.691447
vn 0.445287 0.424218 -0.788516
vn 0.447280 0.261883 -0.855195
vn 0.449202 0.089658 -0.888920
vn 0.450980 -0.085840 -0.888396
vn 0.452547 -0.257865 -0.853643
vn 0.453841 -0.419806 -0.785997
vn 0.454813 -0.565441 -0.688057
vn 0.455425 -0.689173 -0.563586
vn 0.455655 -0.786246 -0.417368
vn 0.455492 -0.852930 -0.255024
vn 0.454944 -0.886663 -0.082790
vn -0.999935 -0.010149 -0.005168
vn -0.999935 -0.010149 -0.005169
s off
f 2//1 1//1 33//1
f 33//2 3//2 2//2
f 33//3 4//3 3//3
f 33//4 5//4 4//4
f 33//5 6//5 5//5
f 33//6 7//6 6//6
f 33//7 8//7 7//7
f 33//8 9//8 8//8
f 33//9 10//9 9//9
f 33//10 11//10 10//10
f 33//11 12//11 11//11
f 33//12 13//12 12//12
f 33//13 14//13 13//13
f 33//14 15//14 14//14
f 33//15 16//15 15//15
f 33//16 17//16 16//16
f 33//17 18//17 17//17
f 33//18 19//18 18//18
f 33//19 20//19 19//19
f 33//20 21//20 20//20
f 33//21 22//21 21//21
f 33//22 23//22 22//22
f 33//23 24//23 23//23
f 33//24 25//24 24//24
f 33//25 26//25 25//25
f 33//26 27//26 26//26
f 33//27 28//27 27//27
f 33//28 29//28 28//28
f 33//29 30//29 29//29
f 33//30 31//30 30//30
f 33//31 32//31 31//31
f 33//32 1//32 32//32
f 34//33 1//33 2//33
f 34//34 2//34 3//34
f 34//33 3//33 4//33
f 34//34 4//34 5//34
f 34//34 5//34 6//34
f 34//34 6//34 7//34
f 34//33 7//33 8//33
f 34//33 8//33 9//33
f 34//33 9//33 10//33
f 34//33 10//33 11//33
f 34//33 11//33 12//33
f 34//34 12//34 13//34
f 34//33 13//33 14//33
f 34//34 14//34 15//34
f 34//33 15//33 16//33
f 34//33 16//33 17//33
f 34//34 17//34 18//34
f 34//34 18//34 19//34
f 34//34 19//34 20//34
f 34//34 20//34 21//34
f 34//33 21//33 22//33
f 34//33 22//33 23//33
f 34//33 23//33 24//33
f 34//33 24//33 25//33
f 34//33 25//33 26//33
f 34//33 26//33 27//33
f 34//33 27//33 28//33
f 34//34 28//34 29//34
f 34//33 29//33 30//33
f 34//33 30//33 31//33
f 34//34 31//34 32//34
f 32//33 1//33 34//33
