# Blender v2.62 (sub 0) OBJ File: 'trouble_zero.blend'
# www.blender.org
o Text
v -0.100000 -0.169231 0.079000
v -0.100000 -0.130769 0.079000
v 0.053846 -0.130769 0.079000
v 0.053846 -0.153846 0.079000
v 0.069231 -0.153846 0.079000
v 0.069231 -0.169231 0.079000
v 0.092308 -0.169231 0.079000
v 0.092308 -0.246154 0.079000
v 0.069231 -0.246154 0.079000
v 0.069231 -0.261538 0.079000
v 0.053846 -0.261538 0.079000
v 0.053846 -0.284615 0.079000
v -0.061538 -0.284615 0.079000
v -0.061538 -0.361538 0.079000
v 0.092308 -0.361538 0.079000
v 0.092308 -0.400000 0.079000
v -0.100000 -0.400000 0.079000
v -0.100000 -0.284615 0.079000
v -0.076923 -0.284615 0.079000
v -0.076923 -0.269231 0.079000
v -0.061538 -0.269231 0.079000
v -0.061538 -0.246154 0.079000
v 0.053846 -0.246154 0.079000
v 0.053846 -0.169231 0.079000
v -0.100000 -0.169231 -0.079000
v -0.100000 -0.130769 -0.079000
v 0.053846 -0.130769 -0.079000
v 0.053846 -0.153846 -0.079000
v 0.069231 -0.153846 -0.079000
v 0.069231 -0.169231 -0.079000
v 0.092308 -0.169231 -0.079000
v 0.092308 -0.246154 -0.079000
v 0.069231 -0.246154 -0.079000
v 0.069231 -0.261538 -0.079000
v 0.053846 -0.261538 -0.079000
v 0.053846 -0.284615 -0.079000
v -0.061538 -0.284615 -0.079000
v -0.061538 -0.361538 -0.079000
v 0.092308 -0.361538 -0.079000
v 0.092308 -0.400000 -0.079000
v -0.100000 -0.400000 -0.079000
v -0.100000 -0.284615 -0.079000
v -0.076923 -0.284615 -0.079000
v -0.076923 -0.269231 -0.079000
v -0.061538 -0.269231 -0.079000
v -0.061538 -0.246154 -0.079000
v 0.053846 -0.246154 -0.079000
v 0.053846 -0.169231 -0.079000
v -0.100000 -0.169231 -0.079000
v -0.104000 -0.173231 -0.075000
v -0.100000 -0.130769 -0.079000
v -0.104000 -0.126769 -0.075000
v 0.053846 -0.130769 -0.079000
v 0.057846 -0.126769 -0.075000
v 0.053846 -0.153846 -0.079000
v 0.057846 -0.149846 -0.075000
v 0.069231 -0.153846 -0.079000
v 0.073231 -0.149846 -0.075000
v 0.069231 -0.169231 -0.079000
v 0.073231 -0.165231 -0.075000
v 0.092308 -0.169231 -0.079000
v 0.096308 -0.165231 -0.075000
v 0.092308 -0.246154 -0.079000
v 0.096308 -0.250154 -0.075000
v 0.069231 -0.246154 -0.079000
v 0.073231 -0.250154 -0.075000
v 0.069231 -0.261538 -0.079000
v 0.073231 -0.265538 -0.075000
v 0.053846 -0.261538 -0.079000
v 0.057846 -0.265538 -0.075000
v 0.053846 -0.284615 -0.079000
v 0.057846 -0.288615 -0.075000
v -0.061538 -0.284615 -0.079000
v -0.057538 -0.288615 -0.075000
v -0.061538 -0.361538 -0.079000
v -0.057538 -0.357538 -0.075000
v 0.092308 -0.361538 -0.079000
v 0.096308 -0.357538 -0.075000
v 0.092308 -0.400000 -0.079000
v 0.096308 -0.404000 -0.075000
v -0.100000 -0.400000 -0.079000
v -0.104000 -0.404000 -0.075000
v -0.100000 -0.284615 -0.079000
v -0.104000 -0.280615 -0.075000
v -0.076923 -0.284615 -0.079000
v -0.080923 -0.280615 -0.075000
v -0.076923 -0.269231 -0.079000
v -0.080923 -0.265231 -0.075000
v -0.061538 -0.269231 -0.079000
v -0.065538 -0.265231 -0.075000
v -0.061538 -0.246154 -0.079000
v -0.065538 -0.242154 -0.075000
v 0.053846 -0.246154 -0.079000
v 0.049846 -0.242154 -0.075000
v 0.053846 -0.169231 -0.079000
v 0.049846 -0.173231 -0.075000
v -0.104000 -0.173231 -0.075000
v -0.104000 -0.173231 0.075000
v -0.104000 -0.126769 -0.075000
v -0.104000 -0.126769 0.075000
v 0.057846 -0.126769 -0.075000
v 0.057846 -0.126769 0.075000
v 0.057846 -0.149846 -0.075000
v 0.057846 -0.149846 0.075000
v 0.073231 -0.149846 -0.075000
v 0.073231 -0.149846 0.075000
v 0.073231 -0.165231 -0.075000
v 0.073231 -0.165231 0.075000
v 0.096308 -0.165231 -0.075000
v 0.096308 -0.165231 0.075000
v 0.096308 -0.250154 -0.075000
v 0.096308 -0.250154 0.075000
v 0.073231 -0.250154 -0.075000
v 0.073231 -0.250154 0.075000
v 0.073231 -0.265538 -0.075000
v 0.073231 -0.265538 0.075000
v 0.057846 -0.265538 -0.075000
v 0.057846 -0.265538 0.075000
v 0.057846 -0.288615 -0.075000
v 0.057846 -0.288615 0.075000
v -0.057538 -0.288615 -0.075000
v -0.057538 -0.288615 0.075000
v -0.057538 -0.357538 -0.075000
v -0.057538 -0.357538 0.075000
v 0.096308 -0.357538 -0.075000
v 0.096308 -0.357538 0.075000
v 0.096308 -0.404000 -0.075000
v 0.096308 -0.404000 0.075000
v -0.104000 -0.404000 -0.075000
v -0.104000 -0.404000 0.075000
v -0.104000 -0.280615 -0.075000
v -0.104000 -0.280615 0.075000
v -0.080923 -0.280615 -0.075000
v -0.080923 -0.280615 0.075000
v -0.080923 -0.265231 -0.075000
v -0.080923 -0.265231 0.075000
v -0.065538 -0.265231 -0.075000
v -0.065538 -0.265231 0.075000
v -0.065538 -0.242154 -0.075000
v -0.065538 -0.242154 0.075000
v 0.049846 -0.242154 -0.075000
v 0.049846 -0.242154 0.075000
v 0.049846 -0.173231 -0.075000
v 0.049846 -0.173231 0.075000
v -0.104000 -0.173231 0.075000
v -0.100000 -0.169231 0.079000
v -0.104000 -0.126769 0.075000
v -0.100000 -0.130769 0.079000
v 0.057846 -0.126769 0.075000
v 0.053846 -0.130769 0.079000
v 0.057846 -0.149846 0.075000
v 0.053846 -0.153846 0.079000
v 0.073231 -0.149846 0.075000
v 0.069231 -0.153846 0.079000
v 0.073231 -0.165231 0.075000
v 0.069231 -0.169231 0.079000
v 0.096308 -0.165231 0.075000
v 0.092308 -0.169231 0.079000
v 0.096308 -0.250154 0.075000
v 0.092308 -0.246154 0.079000
v 0.073231 -0.250154 0.075000
v 0.069231 -0.246154 0.079000
v 0.073231 -0.265538 0.075000
v 0.069231 -0.261538 0.079000
v 0.057846 -0.265538 0.075000
v 0.053846 -0.261538 0.079000
v 0.057846 -0.288615 0.075000
v 0.053846 -0.284615 0.079000
v -0.057538 -0.288615 0.075000
v -0.061538 -0.284615 0.079000
v -0.057538 -0.357538 0.075000
v -0.061538 -0.361538 0.079000
v 0.096308 -0.357538 0.075000
v 0.092308 -0.361538 0.079000
v 0.096308 -0.404000 0.075000
v 0.092308 -0.400000 0.079000
v -0.104000 -0.404000 0.075000
v -0.100000 -0.400000 0.079000
v -0.104000 -0.280615 0.075000
v -0.100000 -0.284615 0.079000
v -0.080923 -0.280615 0.075000
v -0.076923 -0.284615 0.079000
v -0.080923 -0.265231 0.075000
v -0.076923 -0.269231 0.079000
v -0.065538 -0.265231 0.075000
v -0.061538 -0.269231 0.079000
v -0.065538 -0.242154 0.075000
v -0.061538 -0.246154 0.079000
v 0.049846 -0.242154 0.075000
v 0.053846 -0.246154 0.079000
v 0.049846 -0.173231 0.075000
v 0.053846 -0.169231 0.079000
vn -0.000000 0.000000 1.000000
vn 0.000000 0.000000 0.000000
vn 0.000000 0.000000 -1.000000
vn -0.408246 -0.408246 -0.816492
vn -0.408246 0.408246 -0.816492
vn 0.408246 0.408246 -0.816492
vn 0.408246 -0.408246 -0.816492
vn -0.707083 -0.707083 0.000000
vn -0.707083 0.707083 0.000000
vn 0.707083 0.707083 0.000000
vn 0.707083 -0.707083 0.000000
vn -0.408246 -0.408246 0.816492
vn -0.408246 0.408246 0.816492
vn 0.408246 0.408246 0.816492
vn 0.408246 -0.408246 0.816492
s off
f 1//1 3//1 2//1
f 1//1 4//1 3//1
f 1//1 5//1 4//1
f 1//1 6//1 5//1
f 6//2 1//2 24//2
f 23//1 6//1 24//1
f 23//1 7//1 6//1
f 23//1 8//1 7//1
f 21//1 23//1 22//1
f 21//1 9//1 23//1
f 9//2 8//2 23//2
f 21//1 11//1 9//1
f 11//1 10//1 9//1
f 21//1 12//1 11//1
f 19//1 21//1 20//1
f 19//1 12//1 21//1
f 17//1 19//1 18//1
f 17//1 13//1 19//1
f 13//2 12//2 19//2
f 17//1 14//1 13//1
f 17//1 15//1 14//1
f 17//1 16//1 15//1
f 27//3 25//3 26//3
f 28//3 25//3 27//3
f 29//3 25//3 28//3
f 30//3 25//3 29//3
f 30//2 48//2 25//2
f 30//3 47//3 48//3
f 31//3 47//3 30//3
f 32//3 47//3 31//3
f 47//3 45//3 46//3
f 33//3 45//3 47//3
f 32//2 33//2 47//2
f 35//3 45//3 33//3
f 34//3 35//3 33//3
f 36//3 45//3 35//3
f 45//3 43//3 44//3
f 36//3 43//3 45//3
f 43//3 41//3 42//3
f 37//3 41//3 43//3
f 36//2 37//2 43//2
f 38//3 41//3 37//3
f 39//3 41//3 38//3
f 40//3 41//3 39//3
s 1
f 50//4 52//5 51//5
f 50//4 51//5 49//4
f 52//5 54//6 53//6
f 52//5 53//6 51//5
f 54//6 56//6 55//6
f 54//6 55//6 53//6
f 56//6 58//6 57//6
f 56//6 57//6 55//6
f 58//6 60//6 59//6
f 58//6 59//6 57//6
f 60//6 62//6 61//6
f 60//6 61//6 59//6
f 62//6 64//7 63//7
f 62//6 63//7 61//6
f 64//7 66//7 65//7
f 64//7 65//7 63//7
f 66//7 68//7 67//7
f 66//7 67//7 65//7
f 68//7 70//7 69//7
f 68//7 69//7 67//7
f 70//7 72//7 71//7
f 70//7 71//7 69//7
f 72//7 74//7 73//7
f 72//7 73//7 71//7
f 74//7 76//6 75//6
f 74//7 75//6 73//7
f 76//6 78//6 77//6
f 76//6 77//6 75//6
f 78//6 80//7 79//7
f 78//6 79//7 77//6
f 80//7 82//4 81//4
f 80//7 81//4 79//7
f 82//4 84//5 83//5
f 82//4 83//5 81//4
f 84//5 86//5 85//5
f 84//5 85//5 83//5
f 86//5 88//5 87//5
f 86//5 87//5 85//5
f 88//5 90//5 89//5
f 88//5 89//5 87//5
f 90//5 92//5 91//5
f 90//5 91//5 89//5
f 92//5 94//5 93//5
f 92//5 93//5 91//5
f 94//5 96//4 95//4
f 94//5 95//4 93//5
f 96//4 50//4 49//4
f 96//4 49//4 95//4
f 98//8 100//9 99//9
f 98//8 99//9 97//8
f 100//9 102//10 101//10
f 100//9 101//10 99//9
f 102//10 104//10 103//10
f 102//10 103//10 101//10
f 104//10 106//10 105//10
f 104//10 105//10 103//10
f 106//10 108//10 107//10
f 106//10 107//10 105//10
f 108//10 110//10 109//10
f 108//10 109//10 107//10
f 110//10 112//11 111//11
f 110//10 111//11 109//10
f 112//11 114//11 113//11
f 112//11 113//11 111//11
f 114//11 116//11 115//11
f 114//11 115//11 113//11
f 116//11 118//11 117//11
f 116//11 117//11 115//11
f 118//11 120//11 119//11
f 118//11 119//11 117//11
f 120//11 122//11 121//11
f 120//11 121//11 119//11
f 122//11 124//10 123//10
f 122//11 123//10 121//11
f 124//10 126//10 125//10
f 124//10 125//10 123//10
f 126//10 128//11 127//11
f 126//10 127//11 125//10
f 128//11 130//8 129//8
f 128//11 129//8 127//11
f 130//8 132//9 131//9
f 130//8 131//9 129//8
f 132//9 134//9 133//9
f 132//9 133//9 131//9
f 134//9 136//9 135//9
f 134//9 135//9 133//9
f 136//9 138//9 137//9
f 136//9 137//9 135//9
f 138//9 140//9 139//9
f 138//9 139//9 137//9
f 140//9 142//9 141//9
f 140//9 141//9 139//9
f 142//9 144//8 143//8
f 142//9 143//8 141//9
f 144//8 98//8 97//8
f 144//8 97//8 143//8
f 146//12 148//13 147//13
f 146//12 147//13 145//12
f 148//13 150//14 149//14
f 148//13 149//14 147//13
f 150//14 152//14 151//14
f 150//14 151//14 149//14
f 152//14 154//14 153//14
f 152//14 153//14 151//14
f 154//14 156//14 155//14
f 154//14 155//14 153//14
f 156//14 158//14 157//14
f 156//14 157//14 155//14
f 158//14 160//15 159//15
f 158//14 159//15 157//14
f 160//15 162//15 161//15
f 160//15 161//15 159//15
f 162//15 164//15 163//15
f 162//15 163//15 161//15
f 164//15 166//15 165//15
f 164//15 165//15 163//15
f 166//15 168//15 167//15
f 166//15 167//15 165//15
f 168//15 170//15 169//15
f 168//15 169//15 167//15
f 170//15 172//14 171//14
f 170//15 171//14 169//15
f 172//14 174//14 173//14
f 172//14 173//14 171//14
f 174//14 176//15 175//15
f 174//14 175//15 173//14
f 176//15 178//12 177//12
f 176//15 177//12 175//15
f 178//12 180//13 179//13
f 178//12 179//13 177//12
f 180//13 182//13 181//13
f 180//13 181//13 179//13
f 182//13 184//13 183//13
f 182//13 183//13 181//13
f 184//13 186//13 185//13
f 184//13 185//13 183//13
f 186//13 188//13 187//13
f 186//13 187//13 185//13
f 188//13 190//13 189//13
f 188//13 189//13 187//13
f 190//13 192//12 191//12
f 190//13 191//12 189//13
f 192//12 146//12 145//12
f 192//12 145//12 191//12
