# Blender v2.62 (sub 0) OBJ File: 'trouble_zero.blend'
# www.blender.org
o Text
v -0.076923 -0.230769 0.079000
v -0.061538 -0.230769 0.079000
v -0.061538 -0.169231 0.079000
v -0.023077 -0.169231 0.079000
v -0.023077 -0.130769 0.079000
v 0.053846 -0.130769 0.079000
v 0.053846 -0.284615 0.079000
v 0.092308 -0.284615 0.079000
v 0.092308 -0.323385 0.079000
v 0.053846 -0.323385 0.079000
v 0.053846 -0.400000 0.079000
v 0.015385 -0.400000 0.079000
v 0.015385 -0.323385 0.079000
v -0.100000 -0.323385 0.079000
v -0.100000 -0.246154 0.079000
v -0.076923 -0.246154 0.079000
v 0.015385 -0.284615 0.079000
v 0.015385 -0.169538 0.079000
v -0.023077 -0.169538 0.079000
v -0.023077 -0.207692 0.079000
v -0.030769 -0.207692 0.079000
v -0.030769 -0.238462 0.079000
v -0.061538 -0.238462 0.079000
v -0.061538 -0.284615 0.079000
v 0.015385 -0.323077 0.079000
v 0.053846 -0.323077 0.079000
v 0.053846 -0.284923 0.079000
v 0.046154 -0.284923 0.079000
v 0.046154 -0.315385 0.079000
v 0.015385 -0.315385 0.079000
v -0.076923 -0.230769 -0.079000
v -0.061538 -0.230769 -0.079000
v -0.061538 -0.169231 -0.079000
v -0.023077 -0.169231 -0.079000
v -0.023077 -0.130769 -0.079000
v 0.053846 -0.130769 -0.079000
v 0.053846 -0.284615 -0.079000
v 0.092308 -0.284615 -0.079000
v 0.092308 -0.323385 -0.079000
v 0.053846 -0.323385 -0.079000
v 0.053846 -0.400000 -0.079000
v 0.015385 -0.400000 -0.079000
v 0.015385 -0.323385 -0.079000
v -0.100000 -0.323385 -0.079000
v -0.100000 -0.246154 -0.079000
v -0.076923 -0.246154 -0.079000
v 0.015385 -0.284615 -0.079000
v 0.015385 -0.169538 -0.079000
v -0.023077 -0.169538 -0.079000
v -0.023077 -0.207692 -0.079000
v -0.030769 -0.207692 -0.079000
v -0.030769 -0.238462 -0.079000
v -0.061538 -0.238462 -0.079000
v -0.061538 -0.284615 -0.079000
v 0.015385 -0.323077 -0.079000
v 0.053846 -0.323077 -0.079000
v 0.053846 -0.284923 -0.079000
v 0.046154 -0.284923 -0.079000
v 0.046154 -0.315385 -0.079000
v 0.015385 -0.315385 -0.079000
v -0.076923 -0.230769 -0.079000
v -0.080923 -0.226769 -0.075000
v -0.061538 -0.230769 -0.079000
v -0.065538 -0.226769 -0.075000
v -0.061538 -0.169231 -0.079000
v -0.065538 -0.165231 -0.075000
v -0.023077 -0.169231 -0.079000
v -0.027077 -0.165231 -0.075000
v -0.023077 -0.130769 -0.079000
v -0.027077 -0.126769 -0.075000
v 0.053846 -0.130769 -0.079000
v 0.057846 -0.126769 -0.075000
v 0.053846 -0.284615 -0.079000
v 0.057846 -0.280615 -0.075000
v 0.092308 -0.284615 -0.079000
v 0.096308 -0.280615 -0.075000
v 0.092308 -0.323385 -0.079000
v 0.096308 -0.327385 -0.075000
v 0.053846 -0.323385 -0.079000
v 0.057846 -0.327385 -0.075000
v 0.053846 -0.400000 -0.079000
v 0.057846 -0.404000 -0.075000
v 0.015385 -0.400000 -0.079000
v 0.011385 -0.404000 -0.075000
v 0.015385 -0.323385 -0.079000
v 0.011385 -0.327385 -0.075000
v -0.100000 -0.323385 -0.079000
v -0.104000 -0.327385 -0.075000
v -0.100000 -0.246154 -0.079000
v -0.104000 -0.242154 -0.075000
v -0.076923 -0.246154 -0.079000
v -0.080923 -0.242154 -0.075000
v -0.080923 -0.226769 -0.075000
v -0.080923 -0.226769 0.075000
v -0.065538 -0.226769 -0.075000
v -0.065538 -0.226769 0.075000
v -0.065538 -0.165231 -0.075000
v -0.065538 -0.165231 0.075000
v -0.027077 -0.165231 -0.075000
v -0.027077 -0.165231 0.075000
v -0.027077 -0.126769 -0.075000
v -0.027077 -0.126769 0.075000
v 0.057846 -0.126769 -0.075000
v 0.057846 -0.126769 0.075000
v 0.057846 -0.280615 -0.075000
v 0.057846 -0.280615 0.075000
v 0.096308 -0.280615 -0.075000
v 0.096308 -0.280615 0.075000
v 0.096308 -0.327385 -0.075000
v 0.096308 -0.327385 0.075000
v 0.057846 -0.327385 -0.075000
v 0.057846 -0.327385 0.075000
v 0.057846 -0.404000 -0.075000
v 0.057846 -0.404000 0.075000
v 0.011385 -0.404000 -0.075000
v 0.011385 -0.404000 0.075000
v 0.011385 -0.327385 -0.075000
v 0.011385 -0.327385 0.075000
v -0.104000 -0.327385 -0.075000
v -0.104000 -0.327385 0.075000
v -0.104000 -0.242154 -0.075000
v -0.104000 -0.242154 0.075000
v -0.080923 -0.242154 -0.075000
v -0.080923 -0.242154 0.075000
v -0.080923 -0.226769 0.075000
v -0.076923 -0.230769 0.079000
v -0.065538 -0.226769 0.075000
v -0.061538 -0.230769 0.079000
v -0.065538 -0.165231 0.075000
v -0.061538 -0.169231 0.079000
v -0.027077 -0.165231 0.075000
v -0.023077 -0.169231 0.079000
v -0.027077 -0.126769 0.075000
v -0.023077 -0.130769 0.079000
v 0.057846 -0.126769 0.075000
v 0.053846 -0.130769 0.079000
v 0.057846 -0.280615 0.075000
v 0.053846 -0.284615 0.079000
v 0.096308 -0.280615 0.075000
v 0.092308 -0.284615 0.079000
v 0.096308 -0.327385 0.075000
v 0.092308 -0.323385 0.079000
v 0.057846 -0.327385 0.075000
v 0.053846 -0.323385 0.079000
v 0.057846 -0.404000 0.075000
v 0.053846 -0.400000 0.079000
v 0.011385 -0.404000 0.075000
v 0.015385 -0.400000 0.079000
v 0.011385 -0.327385 0.075000
v 0.015385 -0.323385 0.079000
v -0.104000 -0.327385 0.075000
v -0.100000 -0.323385 0.079000
v -0.104000 -0.242154 0.075000
v -0.100000 -0.246154 0.079000
v -0.080923 -0.242154 0.075000
v -0.076923 -0.246154 0.079000
v 0.015385 -0.284615 -0.079000
v 0.011385 -0.280615 -0.075000
v 0.015385 -0.169538 -0.079000
v 0.011385 -0.173538 -0.075000
v -0.023077 -0.169538 -0.079000
v -0.019077 -0.173538 -0.075000
v -0.023077 -0.207692 -0.079000
v -0.019077 -0.211692 -0.075000
v -0.030769 -0.207692 -0.079000
v -0.026769 -0.211692 -0.075000
v -0.030769 -0.238462 -0.079000
v -0.026769 -0.242462 -0.075000
v -0.061538 -0.238462 -0.079000
v -0.057538 -0.242462 -0.075000
v -0.061538 -0.284615 -0.079000
v -0.057538 -0.280615 -0.075000
v 0.011385 -0.280615 -0.075000
v 0.011385 -0.280615 0.075000
v 0.011385 -0.173538 -0.075000
v 0.011385 -0.173538 0.075000
v -0.019077 -0.173538 -0.075000
v -0.019077 -0.173538 0.075000
v -0.019077 -0.211692 -0.075000
v -0.019077 -0.211692 0.075000
v -0.026769 -0.211692 -0.075000
v -0.026769 -0.211692 0.075000
v -0.026769 -0.242462 -0.075000
v -0.026769 -0.242462 0.075000
v -0.057538 -0.242462 -0.075000
v -0.057538 -0.242462 0.075000
v -0.057538 -0.280615 -0.075000
v -0.057538 -0.280615 0.075000
v 0.011385 -0.280615 0.075000
v 0.015385 -0.284615 0.079000
v 0.011385 -0.173538 0.075000
v 0.015385 -0.169538 0.079000
v -0.019077 -0.173538 0.075000
v -0.023077 -0.169538 0.079000
v -0.019077 -0.211692 0.075000
v -0.023077 -0.207692 0.079000
v -0.026769 -0.211692 0.075000
v -0.030769 -0.207692 0.079000
v -0.026769 -0.242462 0.075000
v -0.030769 -0.238462 0.079000
v -0.057538 -0.242462 0.075000
v -0.061538 -0.238462 0.079000
v -0.057538 -0.280615 0.075000
v -0.061538 -0.284615 0.079000
v 0.015385 -0.323077 -0.079000
v 0.019385 -0.319077 -0.075000
v 0.053846 -0.323077 -0.079000
v 0.049846 -0.319077 -0.075000
v 0.053846 -0.284923 -0.079000
v 0.049846 -0.288923 -0.075000
v 0.046154 -0.284923 -0.079000
v 0.050154 -0.288923 -0.075000
v 0.046154 -0.315385 -0.079000
v 0.050154 -0.319385 -0.075000
v 0.015385 -0.315385 -0.079000
v 0.019385 -0.319385 -0.075000
v 0.019385 -0.319077 -0.075000
v 0.019385 -0.319077 0.075000
v 0.049846 -0.319077 -0.075000
v 0.049846 -0.319077 0.075000
v 0.049846 -0.288923 -0.075000
v 0.049846 -0.288923 0.075000
v 0.050154 -0.288923 -0.075000
v 0.050154 -0.288923 0.075000
v 0.050154 -0.319385 -0.075000
v 0.050154 -0.319385 0.075000
v 0.019385 -0.319385 -0.075000
v 0.019385 -0.319385 0.075000
v 0.019385 -0.319077 0.075000
v 0.015385 -0.323077 0.079000
v 0.049846 -0.319077 0.075000
v 0.053846 -0.323077 0.079000
v 0.049846 -0.288923 0.075000
v 0.053846 -0.284923 0.079000
v 0.050154 -0.288923 0.075000
v 0.046154 -0.284923 0.079000
v 0.050154 -0.319385 0.075000
v 0.046154 -0.315385 0.079000
v 0.019385 -0.319385 0.075000
v 0.015385 -0.315385 0.079000
vn -0.000000 0.000000 1.000000
vn 0.000000 0.000000 0.000000
vn 0.000000 0.000000 -1.000000
vn -0.408246 0.408246 -0.816492
vn 0.408246 0.408246 -0.816492
vn 0.408246 -0.408246 -0.816492
vn -0.408246 -0.408246 -0.816492
vn -0.707083 0.707083 0.000000
vn 0.707083 0.707083 0.000000
vn 0.707083 -0.707083 0.000000
vn -0.707083 -0.707083 0.000000
vn -0.408246 0.408246 0.816492
vn 0.408246 0.408246 0.816492
vn 0.408246 -0.408246 0.816492
vn -0.408246 -0.408246 0.816492
vn 0.242164 0.554186 -0.796350
vn -0.554186 -0.242164 -0.796350
vn 0.554186 -0.242164 -0.796350
vn 0.242164 -0.554186 -0.796350
vn 0.242164 0.554186 0.796350
vn -0.554186 -0.242164 0.796350
vn 0.554186 -0.242164 0.796350
vn 0.242164 -0.554186 0.796350
s off
f 4//1 6//1 5//1
f 4//1 18//1 6//1
f 18//1 7//1 6//1
f 2//1 4//1 3//1
f 2//1 19//1 4//1
f 19//1 18//1 4//1
f 2//1 21//1 19//1
f 21//1 20//1 19//1
f 17//1 7//1 18//1
f 2//1 22//1 21//1
f 2//1 1//1 16//1
f 16//1 23//1 2//1
f 23//1 22//1 2//1
f 16//1 24//1 23//1
f 14//1 16//1 15//1
f 14//1 24//1 16//1
f 14//1 17//1 24//1
f 14//1 28//1 17//1
f 28//1 7//1 17//1
f 28//1 8//1 7//1
f 28//1 27//1 8//1
f 27//1 9//1 8//1
f 14//1 30//1 28//1
f 30//1 29//1 28//1
f 26//1 9//1 27//1
f 14//1 25//1 30//1
f 14//1 26//1 25//1
f 14//1 9//1 26//1
f 13//2 9//2 14//2
f 12//1 10//1 13//1
f 10//2 9//2 13//2
f 12//1 11//1 10//1
f 36//3 34//3 35//3
f 48//3 34//3 36//3
f 37//3 48//3 36//3
f 34//3 32//3 33//3
f 49//3 32//3 34//3
f 48//3 49//3 34//3
f 51//3 32//3 49//3
f 50//3 51//3 49//3
f 37//3 47//3 48//3
f 52//3 32//3 51//3
f 32//3 46//3 31//3
f 53//3 46//3 32//3
f 52//3 53//3 32//3
f 54//3 46//3 53//3
f 46//3 44//3 45//3
f 54//3 44//3 46//3
f 47//3 44//3 54//3
f 58//3 44//3 47//3
f 37//3 58//3 47//3
f 38//3 58//3 37//3
f 57//3 58//3 38//3
f 39//3 57//3 38//3
f 60//3 44//3 58//3
f 59//3 60//3 58//3
f 39//3 56//3 57//3
f 55//3 44//3 60//3
f 56//3 44//3 55//3
f 39//3 44//3 56//3
f 39//2 43//2 44//2
f 40//3 42//3 43//3
f 39//2 40//2 43//2
f 41//3 42//3 40//3
s 1
f 62//4 64//4 63//4
f 62//4 63//4 61//4
f 64//4 66//4 65//4
f 64//4 65//4 63//4
f 66//4 68//4 67//4
f 66//4 67//4 65//4
f 68//4 70//4 69//4
f 68//4 69//4 67//4
f 70//4 72//5 71//5
f 70//4 71//5 69//4
f 72//5 74//5 73//5
f 72//5 73//5 71//5
f 74//5 76//5 75//5
f 74//5 75//5 73//5
f 76//5 78//6 77//6
f 76//5 77//6 75//5
f 78//6 80//6 79//6
f 78//6 79//6 77//6
f 80//6 82//6 81//6
f 80//6 81//6 79//6
f 82//6 84//7 83//7
f 82//6 83//7 81//6
f 84//7 86//7 85//7
f 84//7 85//7 83//7
f 86//7 88//7 87//7
f 86//7 87//7 85//7
f 88//7 90//4 89//4
f 88//7 89//4 87//7
f 90//4 92//4 91//4
f 90//4 91//4 89//4
f 92//4 62//4 61//4
f 92//4 61//4 91//4
f 94//8 96//8 95//8
f 94//8 95//8 93//8
f 96//8 98//8 97//8
f 96//8 97//8 95//8
f 98//8 100//8 99//8
f 98//8 99//8 97//8
f 100//8 102//8 101//8
f 100//8 101//8 99//8
f 102//8 104//9 103//9
f 102//8 103//9 101//8
f 104//9 106//9 105//9
f 104//9 105//9 103//9
f 106//9 108//9 107//9
f 106//9 107//9 105//9
f 108//9 110//10 109//10
f 108//9 109//10 107//9
f 110//10 112//10 111//10
f 110//10 111//10 109//10
f 112//10 114//10 113//10
f 112//10 113//10 111//10
f 114//10 116//11 115//11
f 114//10 115//11 113//10
f 116//11 118//11 117//11
f 116//11 117//11 115//11
f 118//11 120//11 119//11
f 118//11 119//11 117//11
f 120//11 122//8 121//8
f 120//11 121//8 119//11
f 122//8 124//8 123//8
f 122//8 123//8 121//8
f 124//8 94//8 93//8
f 124//8 93//8 123//8
f 126//12 128//12 127//12
f 126//12 127//12 125//12
f 128//12 130//12 129//12
f 128//12 129//12 127//12
f 130//12 132//12 131//12
f 130//12 131//12 129//12
f 132//12 134//12 133//12
f 132//12 133//12 131//12
f 134//12 136//13 135//13
f 134//12 135//13 133//12
f 136//13 138//13 137//13
f 136//13 137//13 135//13
f 138//13 140//13 139//13
f 138//13 139//13 137//13
f 140//13 142//14 141//14
f 140//13 141//14 139//13
f 142//14 144//14 143//14
f 142//14 143//14 141//14
f 144//14 146//14 145//14
f 144//14 145//14 143//14
f 146//14 148//15 147//15
f 146//14 147//15 145//14
f 148//15 150//15 149//15
f 148//15 149//15 147//15
f 150//15 152//15 151//15
f 150//15 151//15 149//15
f 152//15 154//12 153//12
f 152//15 153//12 151//15
f 154//12 156//12 155//12
f 154//12 155//12 153//12
f 156//12 126//12 125//12
f 156//12 125//12 155//12
f 158//4 160//7 159//7
f 158//4 159//7 157//4
f 160//7 162//6 161//6
f 160//7 161//6 159//7
f 162//6 164//6 163//6
f 162//6 163//6 161//6
f 164//6 166//6 165//6
f 164//6 165//6 163//6
f 166//6 168//6 167//6
f 166//6 167//6 165//6
f 168//6 170//6 169//6
f 168//6 169//6 167//6
f 170//6 172//5 171//5
f 170//6 171//5 169//6
f 172//5 158//4 157//4
f 172//5 157//4 171//5
f 174//8 176//11 175//11
f 174//8 175//11 173//8
f 176//11 178//10 177//10
f 176//11 177//10 175//11
f 178//10 180//10 179//10
f 178//10 179//10 177//10
f 180//10 182//10 181//10
f 180//10 181//10 179//10
f 182//10 184//10 183//10
f 182//10 183//10 181//10
f 184//10 186//10 185//10
f 184//10 185//10 183//10
f 186//10 188//9 187//9
f 186//10 187//9 185//10
f 188//9 174//8 173//8
f 188//9 173//8 187//9
f 190//12 192//15 191//15
f 190//12 191//15 189//12
f 192//15 194//14 193//14
f 192//15 193//14 191//15
f 194//14 196//14 195//14
f 194//14 195//14 193//14
f 196//14 198//14 197//14
f 196//14 197//14 195//14
f 198//14 200//14 199//14
f 198//14 199//14 197//14
f 200//14 202//14 201//14
f 200//14 201//14 199//14
f 202//14 204//13 203//13
f 202//14 203//13 201//14
f 204//13 190//12 189//12
f 204//13 189//12 203//13
f 206//16 208//4 207//4
f 206//16 207//4 205//5
f 208//4 210//17 209//7
f 208//4 209//7 207//4
f 210//17 212//18 211//6
f 210//17 211//6 209//7
f 212//18 214//6 213//6
f 212//18 213//6 211//6
f 214//6 216//19 215//6
f 214//6 215//6 213//6
f 216//19 206//16 205//5
f 216//19 205//5 215//6
f 218//8 220//8 219//8
f 218//8 219//8 217//8
f 220//8 222//8 221//8
f 220//8 221//8 219//8
f 222//8 224//9 223//9
f 222//8 223//9 221//8
f 224//9 226//10 225//10
f 224//9 225//10 223//9
f 226//10 228//11 227//11
f 226//10 227//11 225//10
f 228//11 218//8 217//8
f 228//11 217//8 227//11
f 230//13 232//12 231//12
f 230//13 231//12 229//20
f 232//12 234//15 233//21
f 232//12 233//21 231//12
f 234//15 236//14 235//22
f 234//15 235//22 233//21
f 236//14 238//14 237//14
f 236//14 237//14 235//22
f 238//14 240//14 239//23
f 238//14 239//23 237//14
f 240//14 230//13 229//20
f 240//14 229//20 239//23
